cover

Genre:Action | Adventure | Comedy | Fantasy
Language:English
IMDb:http://www.imdb.com/title/tt0446029/
Source:720p BluRay x264-Felony

General
Complete name :Scott.Pilgrim.Vs.The.World.2010.BRRip.720p.H264.Feel-Free
Format : MPEG-4
Format profile : Base Media
Codec ID : isom
File size : 1.49 GiB
Duration : 1h 52mn
Overall bit rate : 1 895 Kbps
Video #1
Codec ID : avc1
Codec ID/Info : Advanced Video Coding
Duration : 1h 52mn
Bit rate mode : Variable
Bit rate : 1 572 Kbps
Width : 1 280 pixels
Height : 688 pixels
Display aspect ratio : 1.860
Frame rate mode : Constant
Frame rate : 24.390 fps
Resolution : 24 bits
Colorimetry : 4:2:0
Scan type : Progressive
Bits/(Pixel*Frame) : 0.073
Stream size : 1.23 GiB (83%)
Audio #2
ID : 2
Format : AAC
Format/Info : Advanced Audio Codec
Format version : Version 4
Format profile : LC
Format settings, SBR : No
Codec ID : 40
Duration : 1h 52mn
Bit rate mode : Variable
Bit rate : 320 Kbps
Channel(s) : 6 channels
Channel positions : Front: L C R, Rear: L R, LFE
Sampling rate : 48.0 KHz
Resolution : 16 bits
Stream size : 256 MiB (17%)

Plot:
Scott Pilgrim must defeat his new girlfriend's seven evil exes in order to win her heart.

screens 
http://img232.imageshack.us/img232/7223/vlcsnap2010102918h15m47.jpg 
http://img219.imageshack.us/img219/6028/vlcsnap2010102918h15m40.jpg 
http://img838.imageshack.us/img838/2259/vlcsnap2010102918h17m18.jpg 
http://img227.imageshack.us/img227/8955/vlcsnap2010102918h16m32.jpg 
http://img828.imageshack.us/img828/1512/vlcsnap2010102918h17m12.jpg 
http://img836.imageshack.us/img836/9273/vlcsnap2010102918h17m55.jpg 
http://img44.imageshack.us/img44/8679/vlcsnap2010102918h17m25.jpg